<svg width="49" height="48" viewBox="0 0 49 48" fill="none" xmlns="http://www.w3.org/2000/svg">
<rect x="0.810822" width="48" height="48" rx="5" fill="#F2F2F2"/>
<path d="M32.4182 30.3101L24.1622 38.5661L15.9062 30.3101C14.2733 28.6772 13.1613 26.5968 12.7108 24.332C12.2603 22.0671 12.4915 19.7195 13.3753 17.5861C14.259 15.4527 15.7555 13.6292 17.6755 12.3462C19.5956 11.0633 21.8529 10.3785 24.1622 10.3785C26.4714 10.3785 28.7288 11.0633 30.6488 12.3462C32.5689 13.6292 34.0654 15.4527 34.9491 17.5861C35.8328 19.7195 36.064 22.0671 35.6135 24.332C35.163 26.5968 34.051 28.6772 32.4182 30.3101ZM24.1622 24.6487C24.8503 24.6487 25.5102 24.3754 25.9968 23.8888C26.4834 23.4022 26.7568 22.7422 26.7568 22.0541C26.7568 21.366 26.4834 20.706 25.9968 20.2195C25.5102 19.7329 24.8503 19.4595 24.1622 19.4595C23.474 19.4595 22.8141 19.7329 22.3275 20.2195C21.8409 20.706 21.5676 21.366 21.5676 22.0541C21.5676 22.7422 21.8409 23.4022 22.3275 23.8888C22.8141 24.3754 23.474 24.6487 24.1622 24.6487Z" fill="#4B6A32"/>
</svg>
