<svg width="48" height="48" viewBox="0 0 48 48" fill="none" xmlns="http://www.w3.org/2000/svg">
<rect width="48" height="48" rx="5" fill="#F2F2F2"/>
<path d="M35.027 30.3827V34.9699C35.0272 35.2984 34.9027 35.6147 34.6788 35.8549C34.4549 36.0952 34.1482 36.2416 33.8205 36.2646C33.2536 36.3036 32.7905 36.3243 32.4324 36.3243C20.9682 36.3243 11.6757 27.0318 11.6757 15.5676C11.6757 15.2095 11.6951 14.7464 11.7353 14.1794C11.7583 13.8518 11.9047 13.5451 12.145 13.3212C12.3853 13.0973 12.7016 12.9728 13.03 12.973H17.6173C17.7782 12.9728 17.9334 13.0325 18.0528 13.1403C18.1722 13.2482 18.2472 13.3966 18.2633 13.5567C18.2932 13.8551 18.3204 14.0925 18.3464 14.2729C18.6042 16.0721 19.1325 17.822 19.9135 19.4633C20.0367 19.7228 19.9563 20.0329 19.7228 20.1989V20.1989C18.0884 21.3668 17.4426 23.5542 18.5912 25.2022C19.7353 26.8437 21.1619 28.2698 22.8038 29.4133C24.4495 30.5596 26.6333 29.9151 27.7998 28.2837V28.2837C27.8814 28.1695 28.0006 28.0876 28.1364 28.0523C28.2723 28.017 28.4162 28.0304 28.5431 28.0904C30.1842 28.8699 31.9337 29.397 33.7323 29.6536C33.9126 29.6796 34.15 29.7068 34.4458 29.7366C34.6057 29.753 34.7538 29.8282 34.8614 29.9476C34.969 30.0669 35.0272 30.222 35.027 30.3827Z" fill="#4B6A32"/>
</svg>
