<svg width="19" height="21" viewBox="0 0 19 21" fill="none" xmlns="http://www.w3.org/2000/svg">
<path d="M6.72803 5H12.728C12.728 4.20435 12.412 3.44129 11.8493 2.87868C11.2867 2.31607 10.5237 2 9.72803 2C8.93238 2 8.16932 2.31607 7.60671 2.87868C7.0441 3.44129 6.72803 4.20435 6.72803 5ZM4.72803 5C4.72803 3.67392 5.25481 2.40215 6.19249 1.46447C7.13018 0.526784 8.40194 0 9.72803 0C11.0541 0 12.3259 0.526784 13.2636 1.46447C14.2012 2.40215 14.728 3.67392 14.728 5H17.728C17.9932 5 18.2476 5.10536 18.4351 5.29289C18.6227 5.48043 18.728 5.73478 18.728 6V20C18.728 20.2652 18.6227 20.5196 18.4351 20.7071C18.2476 20.8946 17.9932 21 17.728 21H1.72803C1.46281 21 1.20846 20.8946 1.02092 20.7071C0.833384 20.5196 0.728027 20.2652 0.728027 20V6C0.728027 5.73478 0.833384 5.48043 1.02092 5.29289C1.20846 5.10536 1.46281 5 1.72803 5H4.72803ZM2.72803 7V19H16.728V7H2.72803ZM6.72803 9C6.72803 9.79565 7.0441 10.5587 7.60671 11.1213C8.16932 11.6839 8.93238 12 9.72803 12C10.5237 12 11.2867 11.6839 11.8493 11.1213C12.412 10.5587 12.728 9.79565 12.728 9H14.728C14.728 10.3261 14.2012 11.5979 13.2636 12.5355C12.3259 13.4732 11.0541 14 9.72803 14C8.40194 14 7.13018 13.4732 6.19249 12.5355C5.25481 11.5979 4.72803 10.3261 4.72803 9H6.72803Z" fill="#F2F2F2"/>
</svg>
