<svg width="49" height="48" viewBox="0 0 49 48" fill="none" xmlns="http://www.w3.org/2000/svg">
<rect x="0.621613" width="48" height="48" rx="5" fill="#F2F2F2"/>
<path d="M13.5946 12.973H36.9459C37.29 12.973 37.62 13.1096 37.8632 13.3529C38.1065 13.5962 38.2432 13.9262 38.2432 14.2703V35.027C38.2432 35.3711 38.1065 35.7011 37.8632 35.9443C37.62 36.1876 37.29 36.3243 36.9459 36.3243H13.5946C13.2505 36.3243 12.9205 36.1876 12.6772 35.9443C12.434 35.7011 12.2973 35.3711 12.2973 35.027V14.2703C12.2973 13.9262 12.434 13.5962 12.6772 13.3529C12.9205 13.1096 13.2505 12.973 13.5946 12.973ZM25.3481 24.2374L17.0298 17.1736L15.3498 19.1507L25.3649 27.6545L35.1998 19.1442L33.5029 17.1814L25.3481 24.2374Z" fill="#4B6A32"/>
</svg>
