<svg width="34" height="34" viewBox="0 0 34 34" fill="none" xmlns="http://www.w3.org/2000/svg">
<path d="M17 17H22.3333C25.1623 17 27.8754 15.8762 29.8758 13.8758C31.8762 11.8754 33 9.16231 33 6.33333V4.55556H27.6667C24.8377 4.55556 22.1246 5.67936 20.1242 7.67975C18.1238 9.68014 17 12.3932 17 15.2222H11.6667C8.83769 15.2222 6.12458 14.0984 4.12419 12.098C2.12381 10.0976 1 7.38453 1 4.55556V1H6.33333C9.16231 1 11.8754 2.12381 13.8758 4.12419C15.8762 6.12458 17 8.83769 17 11.6667V22.3333M8.11111 22.3333H25.8889V29.4444C25.8889 30.3874 25.5143 31.2918 24.8475 31.9586C24.1807 32.6254 23.2763 33 22.3333 33H11.6667C10.7237 33 9.81931 32.6254 9.15251 31.9586C8.48571 31.2918 8.11111 30.3874 8.11111 29.4444V22.3333Z" stroke="#F2F2F2" stroke-width="2" stroke-linecap="round" stroke-linejoin="round"/>
</svg>
